<?xml version="1.0" encoding="UTF-8"?>
<svg viewBox="0 0 900 900" xml:space="preserve" xmlns="http://www.w3.org/2000/svg">
  <script type="application/x-javascript"><![CDATA[
    StringArt = new function()
    {
      var x = 60;
      var xinc = -10;
      window.addEventListener("load", function(e) {animate(); }, false);
      function animate()
      {
        if(x >= 60)  xinc = -10;
        if(x <= -60) xinc = 10;
        x += xinc;
        var path = "M0,"+Number(40-x/2)+"q"+x+",50,0,"+Number(100+x/4)+"t0,"+Number(110-x/2);
        document.getElementById("s1").setAttribute("d",path);
        document.getElementById("s2").setAttribute("d",path);
        document.getElementById("s3").setAttribute("d",path);
        window.setTimeout(animate,150);
      }
    }();
  ]]>
</script>
  <g transform="translate(250,20)" fill="none" stroke="#000" stroke-linecap="round" stroke-width="30px">
    <path d="m0 0q60 50 0 125t0 125"/>
    <path transform="translate(180)" d="m0 0q60 50 0 125t0 125"/>
    <path transform="translate(360)" d="m0 0q60 50 0 125t0 125"/>
  </g>
  <g transform="translate(30,200)">
    <path d="m88.7 133.2c4.8 109.6 66.91 388.6 138.29 458.3h364.9c29.2-29.1 41.5-116.6 71.5-192 12.2-30.5 48.1-167.6 54.6-165.3 146.5-28.2 94.4 201.9-63.8 190.4-19.5 37.9-34.1 76.9-35.2 76.1 290.3-80.2 282.5-287.7 115.97-313.4-8.8-13.48 8.1-41.6 3.5-55.9l-329.1-0.9zm-108.69 464.7c22.17 51.17 102.2 80.6 146.5 89.8h588.13c44.3-9.19 122.1-36.2 144.29-87.4l-412.1 4.7z"/>
  </g>
</svg>
