<?xml version="1.0" encoding="UTF-8" standalone="no"?>
<!DOCTYPE svg PUBLIC "-//W3C//DTD SVG 1.1//EN" "http://www.w3.org/Graphics/SVG/1.1/DTD/svg11.dtd">
<svg width="100%" height="100%" viewBox="0 0 1714 355" version="1.1" xmlns="http://www.w3.org/2000/svg" xmlns:xlink="http://www.w3.org/1999/xlink" xml:space="preserve" xmlns:serif="http://www.serif.com/" style="fill-rule:evenodd;clip-rule:evenodd;stroke-linejoin:round;stroke-miterlimit:1.41421;">
    <g transform="matrix(1,0,0,1,-2824,-8790)">
        <g transform="matrix(1,0,0,1,0,8398.32)">
            <g transform="matrix(1,0,0,1,2773.23,-418.84)">
                <g transform="matrix(0.244804,0,0,0.244804,898.011,558.569)">
                    <g>
                        <g id="O">
                            <g transform="matrix(1,0,0,1,6.01475,195.717)">
                                <circle cx="1234.14" cy="1558.22" r="345.34"/>
                            </g>
                            <g transform="matrix(1,0,0,1,578.219,462.368)">
                                <circle cx="233.434" cy="805.956" r="77.165"/>
                            </g>
                            <g transform="matrix(1,0,0,1,1006.72,302.038)">
                                <circle cx="233.434" cy="805.956" r="77.165"/>
                            </g>
                            <g transform="matrix(1,0,0,1,1442.23,469.368)">
                                <circle cx="233.434" cy="805.956" r="77.165"/>
                            </g>
                            <g transform="matrix(1,0,0,1,1659.35,947.981)">
                                <circle cx="233.434" cy="805.956" r="77.165"/>
                            </g>
                            <g transform="matrix(1,0,0,1,1435.23,1433.59)">
                                <circle cx="233.434" cy="805.956" r="77.165"/>
                            </g>
                            <g transform="matrix(1,0,0,1,1006.72,1593.92)">
                                <circle cx="233.434" cy="805.956" r="77.165"/>
                            </g>
                            <g transform="matrix(1,0,0,1,579.219,1434.59)">
                                <circle cx="233.434" cy="805.956" r="77.165"/>
                            </g>
                            <g transform="matrix(1,0,0,1,360.78,947.981)">
                                <circle cx="233.434" cy="805.956" r="77.165"/>
                            </g>
                        </g>
                    </g>
                </g>
                <g transform="matrix(1.15367,0,0,1.15367,-457.333,-112.854)">
                    <text x="416.573px" y="1050.25px" style="font-family:'Roboto-Light', 'Roboto';font-weight:300;font-size:267.429px;">EMR W     RX</text>
                </g>
            </g>
        </g>
    </g>
</svg>
